# Blender v2.92.0 OBJ File: 'Dice_d4.blend'
# www.blender.org
mtllib Dice_d4.mtl
o Dice_d4
v -0.034881 0.999758 -0.014099
v 0.000039 0.999758 0.046267
v 0.034857 0.999758 -0.014157
v -0.594391 0.056382 0.390128
v -0.629310 0.056382 0.329762
v -0.595783 0.000000 0.350650
v -0.035458 0.056382 -0.700821
v 0.034280 0.056382 -0.700879
v -0.000574 0.000000 -0.682287
v 0.595046 0.056382 0.389127
v 0.596371 0.000000 0.349647
v 0.629864 0.056382 0.328703
vt 0.863566 0.515087
vt 0.839983 0.501472
vt 0.863566 0.487857
vt 0.839983 0.627698
vt 0.863463 0.613906
vt 0.863463 0.640787
vt 0.863161 0.529990
vt 0.863161 0.557220
vt 0.839983 0.543605
vt 0.839983 0.585212
vt 0.863462 0.572123
vt 0.863462 0.599004
vt 0.866859 0.472955
vt 0.839983 0.472424
vt 0.866859 0.007451
vt 0.839983 0.007981
vt 0.881407 0.487857
vt 0.908637 0.487857
vt 0.881407 0.943481
vt 0.908637 0.943481
vt 0.908637 0.472955
vt 0.881761 0.472425
vt 0.908637 0.007451
vt 0.881761 0.007982
vt 0.950415 0.007982
vt 0.950415 0.472424
vt 0.923540 0.007451
vt 0.923540 0.472954
vt 0.965318 0.463066
vt 0.965318 0.007451
vt 0.992549 0.463066
vt 0.992549 0.007451
vt 0.923540 0.943481
vt 0.923540 0.487857
vt 0.950770 0.943481
vt 0.950770 0.487857
vt 0.407041 0.943480
vt 0.007451 0.706764
vt 0.407041 0.487856
vt 0.007451 0.240202
vt 0.410589 0.007451
vt 0.410589 0.472954
vt 0.425491 0.696884
vt 0.825081 0.477977
vt 0.825081 0.933600
vt 0.425491 0.244167
vt 0.825081 0.007451
vt 0.825081 0.463074
vn 0.0000 1.0000 0.0000
vn -0.8222 -0.3127 0.4756
vn -0.0008 -0.3127 -0.9498
vn 0.8230 -0.3127 0.4742
vn 0.7091 -0.5736 -0.4102
vn 0.7005 0.5885 0.4036
vn 0.7005 0.5885 0.4037
vn 0.0007 -0.5736 0.8192
vn -0.7098 -0.5736 -0.4090
vn -0.0007 0.5885 -0.8085
vn -0.6998 0.5885 0.4048
vn 0.8134 0.3420 -0.4705
vn 0.0000 -1.0000 0.0000
vn 0.0008 0.3420 0.9397
vn -0.8142 0.3420 -0.4692
usemtl M_d4
s 1
f 1/1/1 2/2/1 3/3/1
f 4/4/2 5/5/2 6/6/2
f 7/7/3 8/8/3 9/9/3
f 10/10/4 11/11/4 12/12/4
f 9/13/5 8/14/5 11/15/5
f 11/15/5 8/14/5 12/16/5
f 3/17/6 2/18/6 12/19/7
f 12/19/7 2/18/6 10/20/7
f 11/21/8 10/22/8 6/23/8
f 6/23/8 10/22/8 4/24/8
f 5/25/9 7/26/9 6/27/9
f 6/27/9 7/26/9 9/28/9
f 3/29/10 8/30/10 1/31/10
f 1/31/10 8/30/10 7/32/10
f 1/33/11 5/34/11 2/35/11
f 2/35/11 5/34/11 4/36/11
f 12/37/12 8/38/12 3/39/12
f 9/40/13 11/41/13 6/42/13
f 10/43/14 2/44/14 4/45/14
f 7/46/15 5/47/15 1/48/15
